<svg width="100" height="65" viewBox="0 0 100 65" fill="none" xmlns="http://www.w3.org/2000/svg">
<g clip-path="url(#clip0_2_31)">
<path d="M74.9166 50.0389C78.2001 50.0389 81.4512 49.3897 84.4835 48.1286C87.5158 46.8675 90.2695 45.0193 92.5866 42.69C94.9036 40.3607 96.7385 37.5962 97.9858 34.5551C99.2331 31.5141 99.8684 28.2563 99.8551 24.9689H74.9166V-1.54365e-05C61.7405 -1.54365e-05 50.7858 10.2099 49.9275 23.1998H49.8771V-1.54365e-05C43.4723 -0.0206243 37.3061 2.43174 32.6612 6.84694C28.0163 11.2621 25.2503 17.3003 24.9385 23.7053H24.8376C24.5507 17.3004 21.7994 11.2552 17.1599 6.83627C12.5204 2.41729 6.35291 -0.0325659 -0.0504837 -1.54365e-05V50.0389C6.36594 50.0578 12.5407 47.5898 17.1802 43.152C21.8196 38.7142 24.5637 32.6509 24.8376 26.2325H24.9385C25.2377 32.6599 28.0035 38.7235 32.6592 43.1588C37.3149 47.5942 43.5011 50.0589 49.9275 50.0389V26.7885H49.978C50.4597 33.0912 53.2922 38.9817 57.9127 43.2894C62.5331 47.5971 68.6032 50.0065 74.9166 50.0389Z" fill="white"/>
</g>
<defs>
<clipPath id="clip0_2_31">
<rect width="99.8551" height="65" fill="white"/>
</clipPath>
</defs>
</svg>
